<?xml version="1.0" encoding="utf-8"?>
<svg viewBox="99.418 98.838 200.582 202.325" xmlns="http://www.w3.org/2000/svg" xmlns:bx="https://boxy-svg.com">
  <ellipse style="fill: rgb(216, 216, 216); stroke: rgb(0, 0, 0);" cx="200" cy="200" rx="45" ry="45"/>
  <ellipse style="stroke: rgb(0, 0, 0); fill: rgb(250, 250, 250);" cx="200" cy="200" rx="40" ry="40"/>
  <ellipse style="stroke: rgb(0, 0, 0); fill: rgb(78, 78, 78);" cx="-499.419" cy="212.79" rx="12" ry="12" transform="matrix(1, 0, 0, 1, 699.418518, -12.790298)"/>
  <path style="stroke: rgb(0, 0, 0); fill: rgb(255, 255, 255);" transform="matrix(0.581395, 0, 0, 0.571541, -155.232361, -9.193876)" d="M 601.727730863 309.96 L 620.272269137 309.96 L 620.242098616 324.767898226 A 41.28 41.28 0 0 1 632.913241383 330.016457411 L 643.362672852 319.524358379 L 656.475641621 332.637327148 L 645.983542589 343.086758617 A 41.28 41.28 0 0 1 651.232101774 355.757901384 L 666.04 355.727730863 L 666.04 374.272269137 L 651.232101774 374.242098616 A 41.28 41.28 0 0 1 645.983542589 386.913241383 L 656.475641621 397.362672852 L 643.362672852 410.475641621 L 632.913241383 399.983542589 A 41.28 41.28 0 0 1 620.242098616 405.232101774 L 620.272269137 420.04 L 601.727730863 420.04 L 601.757901384 405.232101774 A 41.28 41.28 0 0 1 589.086758617 399.983542589 L 578.637327148 410.475641621 L 565.524358379 397.362672852 L 576.016457411 386.913241383 A 41.28 41.28 0 0 1 570.767898226 374.242098616 L 555.96 374.272269137 L 555.96 355.727730863 L 570.767898226 355.757901384 A 41.28 41.28 0 0 1 576.016457411 343.086758617 L 565.524358379 332.637327148 L 578.637327148 319.524358379 L 589.086758617 330.016457411 A 41.28 41.28 0 0 1 601.757901384 324.767898226 Z M 611 347.8 A 17.2 17.2 0 0 0 611 382.2 A 17.2 17.2 0 0 0 611 347.8" bx:shape="cog 611 365 17.2 41.28 55.04 0.15 8 1@339b9102" bx:origin="0.490916 0.509241"/>
  <path style="stroke: rgb(0, 0, 0); fill: rgb(255, 255, 255);" transform="matrix(0.581395, 0, 0, 0.571541, -155.232361, -9.154847)" d="M 596.512079473 279 L 625.487920527 279 L 634.105246539 264.419745564 A 103.2 103.2 0 0 1 665.783103456 277.541143526 L 661.566676332 293.944309968 L 682.055690032 314.433323668 L 698.458856474 310.216896544 A 103.2 103.2 0 0 1 711.580254436 341.894753461 L 697 350.512079473 L 697 379.487920527 L 711.580254436 388.105246539 A 103.2 103.2 0 0 1 698.458856474 419.783103456 L 682.055690032 415.566676332 L 661.566676332 436.055690032 L 665.783103456 452.458856474 A 103.2 103.2 0 0 1 634.105246539 465.580254436 L 625.487920527 451 L 596.512079473 451 L 587.894753461 465.580254436 A 103.2 103.2 0 0 1 556.216896544 452.458856474 L 560.433323668 436.055690032 L 539.944309968 415.566676332 L 523.541143526 419.783103456 A 103.2 103.2 0 0 1 510.419745564 388.105246539 L 525 379.487920527 L 525 350.512079473 L 510.419745564 341.894753461 A 103.2 103.2 0 0 1 523.541143526 310.216896544 L 539.944309968 314.433323668 L 560.433323668 293.944309968 L 556.216896544 277.541143526 A 103.2 103.2 0 0 1 587.894753461 264.419745564 Z M 611 279 A 86 86 0 0 0 611 451 A 86 86 0 0 0 611 279" bx:shape="cog 611 365 86 103.2 86 0.15 8 1@cb1a009e" bx:origin="-6.676606 -0.109901"/>
  <path d="M 196.634 115 Q 200.961 105 205.288 115 L 225.48 161.667 Q 229.807 171.667 221.153 171.667 L 180.769 171.667 Q 172.115 171.667 176.442 161.667 Z" style="stroke: rgb(0, 0, 0); paint-order: fill; fill: rgb(78, 78, 78);" bx:shape="triangle 172.115 105 57.692 66.667 0.5 0.15 1@3c928d48" bx:origin="0.5 1.405403"/>
</svg>